<svg width="47" height="47" viewBox="0 0 47 47" fill="none" xmlns="http://www.w3.org/2000/svg">
    <path d="M45.9242 40.732L33.6712 28.479C35.6673 25.4723 36.7188 21.9904 36.7188 18.3594C36.7188 8.23602 28.4827 0 18.3594 0C8.23602 0 0 8.23602 0 18.3594C0 28.4827 8.23602 36.7188 18.3594 36.7188C21.9905 36.7188 25.4723 35.6672 28.479 33.6713L31.8658 37.0581C31.8663 37.0586 31.8667 37.059 31.8673 37.0596L40.7319 45.9242C41.4257 46.6179 42.3476 47 43.3281 47C44.3086 47 45.2305 46.6179 45.924 45.9245C46.6179 45.2312 47 44.3092 47 43.3281C47 42.3471 46.6179 41.4251 45.9242 40.732ZM28.0473 31.7367C28.0473 31.7367 28.0472 31.7367 28.0471 31.7368C25.2136 33.7949 21.8637 34.8828 18.3594 34.8828C9.24835 34.8828 1.83594 27.4704 1.83594 18.3594C1.83594 9.24835 9.24835 1.83594 18.3594 1.83594C27.4704 1.83594 34.8828 9.24835 34.8828 18.3594C34.8828 21.8637 33.7949 25.2136 31.7367 28.0472C30.7071 29.4657 29.4658 30.7071 28.0473 31.7367ZM29.9731 32.5689C30.9232 31.7916 31.7917 30.9232 32.5689 29.9731L35.1733 32.5775C34.3812 33.5123 33.5123 34.3813 32.5775 35.1733L29.9731 32.5689ZM44.626 44.626C44.279 44.973 43.8181 45.1641 43.3281 45.1641C42.8381 45.1641 42.3772 44.973 42.0302 44.626L33.8791 36.4749C34.8087 35.6771 35.6771 34.8088 36.4748 33.8792L44.6262 42.0306C44.973 42.377 45.1641 42.8377 45.1641 43.3281C45.1641 43.8185 44.973 44.2792 44.626 44.626Z"
          fill="currentColor"/>
    <path d="M18.3594 3.67188C10.2606 3.67188 3.67188 10.2606 3.67188 18.3594C3.67188 26.4582 10.2606 33.0469 18.3594 33.0469C26.4582 33.0469 33.0469 26.4582 33.0469 18.3594C33.0469 10.2606 26.4582 3.67188 18.3594 3.67188ZM18.3594 31.2109C11.273 31.2109 5.50781 25.4457 5.50781 18.3594C5.50781 11.273 11.273 5.50781 18.3594 5.50781C25.4457 5.50781 31.2109 11.273 31.2109 18.3594C31.2109 25.4457 25.4457 31.2109 18.3594 31.2109Z"
          fill="currentColor"/>
</svg>
