<svg width="90" height="94" viewBox="0 0 90 94" fill="none" xmlns="http://www.w3.org/2000/svg">
<path d="M81.8687 26.6353C78.2751 32.1042 75.12 38.6035 74.6224 39.721C74.4799 40.0432 74.2554 40.8034 74.0035 41.7333C72.2515 39.2416 70.114 37.1821 67.5596 35.6705C63.9145 33.5147 59.7246 32.6263 55.2012 32.8399C56.2934 31.0948 57.2871 29.2977 57.7648 27.8993C58.9919 24.313 63.4398 9.50491 66.0413 3.18267C68.6415 -3.13956 78.5454 1.3598 84.3007 4.65299C90.0559 7.94618 90.3786 12.0043 89.7932 13.122C89.2092 14.2395 85.4623 21.1664 81.8687 26.6353Z" fill="currentColor"/>
<path d="M59.8004 47.0115C52.1459 43.8359 50.5093 47.688 50.5093 47.688C48.0837 45.4239 49.778 42.7474 49.778 42.7474C49.778 42.7474 49.1653 41.6007 50.1573 40.4237C50.7642 39.7062 52.7196 37.1016 54.4306 34.3656C58.954 34.152 63.1438 35.0404 66.789 37.1962C69.3434 38.7078 71.4809 40.7659 73.2329 43.2591C72.6096 45.5569 71.81 48.9234 71.6022 49.5097C71.3094 50.3328 70.551 51.4502 69.8485 51.5968C69.1476 51.7433 68.7382 52.4198 68.7382 52.4198C67.8326 54.2718 64.9991 54.3892 64.9991 54.3892C64.9991 54.3892 67.4564 50.1871 59.8004 47.0115Z" fill="currentColor"/>
<path d="M2.68647 63.343C5.03171 61.4971 8.17013 60.6101 10.6715 58.9764C17.1383 54.7535 8.76167 50.8633 5.98888 48.3471C1.28028 44.0751 0.0439377 39.153 1.99342 33.1758C2.60308 31.3054 3.9245 29.333 3.31455 31.2016C-0.0182571 41.4247 10.5731 46.3103 15.9522 52.0265C17.9332 54.1318 17.6601 56.4145 15.6019 58.5152C11.6198 62.5795 -0.359352 66.0099 7.06598 72.3277C12.2705 76.7552 20.3481 77.1521 26.1171 80.8913C26.8969 81.3966 26.9878 82.7555 26.2035 83.3082C20.5378 87.2961 12.6938 86.3358 7.11143 89.9571C16.7409 92.8733 26.8422 90.971 36.7447 90.0579C36.7054 89.7755 36.7402 89.5358 36.7402 89.5358C37.9992 81.7722 38.1266 80.0882 37.5426 76.2059C36.9586 72.3249 37.5426 71.9706 37.5426 71.9706C43.5026 63.7368 50.7431 48.1868 50.7431 48.1868C51.7078 46.57 55.535 45.8845 60.2679 48.0097C65.1768 50.2157 64.8262 53.2434 64.8262 53.2434L56.4984 77.9524C56.2055 78.7462 54.8615 79.128 54.8615 79.128C47.06 81.3921 40.7008 89.3267 39.853 90.5618C39.0052 91.7969 38.3921 91.3267 38.3921 91.3267L47.4906 70.8178C48.1853 70.6575 48.8937 70.0498 49.3109 69.149C49.9147 67.8438 49.6749 66.445 48.7754 66.0237C47.876 65.6024 46.6578 66.3184 46.054 67.6237C45.5988 68.607 45.6248 69.6419 46.0478 70.2741L37.3739 89.9998C37.4375 89.9936 37.5013 89.9875 37.5649 89.9816C39.5005 89.8137 37.4693 92.3007 32.0311 92.9879C19.9108 94.5191 15.1704 94.4245 3.48997 91.9344C2.29156 91.6795 2.27036 90.139 3.05768 89.3312C8.23037 84.0181 15.8043 85.151 22.0056 82.2485C14.1165 78.9054 -7.52726 71.3829 2.68647 63.343Z" fill="currentColor"/>
</svg>
